<svg xmlns="http://www.w3.org/2000/svg" width="16" height="16" viewBox="0 0 16 16" fill="none">
  <path d="M8.11975 8.68008C7.86514 8.68008 7.62096 8.57894 7.44093 8.3989C7.26089 8.21887 7.15975 7.97469 7.15975 7.72008C7.15975 7.46547 7.26089 7.22129 7.44093 7.04126C7.62096 6.86122 7.86514 6.76008 8.11975 6.76008C8.37436 6.76008 8.61854 6.86122 8.79857 7.04126C8.97861 7.22129 9.07975 7.46547 9.07975 7.72008C9.07975 7.97469 8.97861 8.21887 8.79857 8.3989C8.61854 8.57894 8.37436 8.68008 8.11975 8.68008ZM7.78183 10.5962C7.89383 10.7313 8.00583 10.8612 8.11975 10.986C8.23303 10.8612 8.34567 10.7313 8.45767 10.5962C8.23242 10.601 8.00708 10.601 7.78183 10.5962ZM6.50503 10.5162C6.01356 10.4653 5.52533 10.3869 5.04263 10.2814C4.99606 10.496 4.95975 10.7128 4.93383 10.931C4.81223 11.9441 4.98183 12.5598 5.23975 12.7082C5.49767 12.8574 6.11527 12.6961 6.93255 12.0849C7.10087 11.9588 7.27047 11.8186 7.44071 11.6657C7.10758 11.3003 6.79519 10.9166 6.50503 10.5162ZM11.1969 10.2814C10.7142 10.3869 10.2259 10.4653 9.73447 10.5162C9.44431 10.9166 9.13192 11.3003 8.79879 11.6657C8.96903 11.8193 9.13863 11.9588 9.30695 12.0849C10.1242 12.6961 10.7418 12.8574 10.9998 12.7082C11.2577 12.5598 11.4266 11.9441 11.3063 10.931C11.2799 10.7129 11.2429 10.4961 11.1969 10.2814ZM12.1255 10.033C12.4948 11.722 12.3009 13.0666 11.4804 13.5402C10.6599 14.0138 9.39847 13.5095 8.12039 12.3454C6.84231 13.5095 5.58087 14.0132 4.76039 13.5396C3.93991 13.066 3.74599 11.722 4.11463 10.0324C2.46727 9.5076 1.40039 8.66728 1.40039 7.72008C1.40039 6.77288 2.46727 5.93256 4.11463 5.40776C3.74599 3.71816 3.93991 2.37416 4.76039 1.90056C5.58087 1.42696 6.84231 1.93064 8.12039 3.0948C9.39847 1.93064 10.6599 1.42696 11.4804 1.90056C12.3009 2.37416 12.4948 3.71816 12.1262 5.40776C13.7722 5.93256 14.8391 6.77288 14.8391 7.72008C14.8391 8.66728 13.7722 9.50824 12.1255 10.033ZM7.44007 3.77448C7.27047 3.62152 7.10087 3.48136 6.93255 3.35528C6.11527 2.74408 5.49767 2.5828 5.23975 2.73192C4.98183 2.8804 4.81287 3.49608 4.93319 4.50984C4.95879 4.71848 4.99463 4.93544 5.04199 5.15944C5.52489 5.05367 6.01333 4.97504 6.50503 4.92392C6.80903 4.506 7.12199 4.12136 7.44007 3.77448ZM9.73511 4.92392C10.2266 4.975 10.7148 5.05363 11.1975 5.15944C11.2455 4.93544 11.282 4.71784 11.3063 4.50984C11.4279 3.49608 11.2583 2.8804 11.0004 2.73192C10.7425 2.5828 10.1249 2.74408 9.30759 3.35528C9.13927 3.48136 8.96967 3.62152 8.79943 3.77448C9.11751 4.12136 9.43111 4.506 9.73511 4.92392ZM8.45831 4.84392C8.34631 4.70952 8.23367 4.57896 8.12039 4.45416C8.00711 4.57896 7.89447 4.70888 7.78247 4.84392C8.00773 4.83914 8.23306 4.83914 8.45831 4.84392ZM5.79847 9.45064C5.68171 9.25806 5.56905 9.06303 5.46055 8.86568C5.39975 9.03016 5.34343 9.19208 5.29223 9.35336C5.45671 9.38856 5.62631 9.4212 5.79847 9.45064ZM7.03431 9.6004C7.75694 9.65403 8.48256 9.65403 9.20519 9.6004C9.61288 9.00126 9.97569 8.37277 10.2906 7.72008C9.97588 7.06729 9.61307 6.43879 9.20519 5.83976C8.48256 5.78609 7.75694 5.78609 7.03431 5.83976C6.62653 6.43885 6.26372 7.06735 5.94887 7.72008C6.26375 8.3728 6.62656 9.00129 7.03431 9.6004ZM10.7796 6.57448C10.8404 6.41 10.8967 6.24808 10.9479 6.08744C10.7801 6.05103 10.6116 6.01838 10.4423 5.98952C10.5588 6.18212 10.6713 6.37715 10.7796 6.57448ZM4.36295 6.33576C4.14535 6.40616 3.93927 6.48296 3.74599 6.56616C2.80839 6.96808 2.35975 7.42248 2.35975 7.72008C2.35975 8.01768 2.80775 8.47208 3.74599 8.874C3.93927 8.9572 4.14535 9.034 4.36295 9.1044C4.50503 8.6564 4.68103 8.19176 4.89095 7.72008C4.68924 7.26886 4.51296 6.8067 4.36295 6.33576ZM5.29095 6.08744C5.34279 6.24744 5.39911 6.41 5.45991 6.57384C5.56842 6.37671 5.68108 6.18189 5.79783 5.98952C5.62503 6.01896 5.45543 6.0516 5.29095 6.08744ZM11.8772 9.1044C12.0948 9.034 12.3009 8.9572 12.4942 8.874C13.4311 8.47208 13.8791 8.01768 13.8791 7.72008C13.8791 7.42248 13.4311 6.96808 12.4929 6.56616C12.2996 6.48296 12.0929 6.40616 11.8753 6.33576C11.7345 6.78376 11.5578 7.2484 11.3479 7.72008C11.5578 8.19176 11.7338 8.6564 11.8759 9.1044M10.9479 9.35336C10.895 9.18964 10.8387 9.02704 10.779 8.86568C10.6704 9.06302 10.5578 9.25805 10.441 9.45064C10.6138 9.4212 10.7834 9.38856 10.9479 9.35336Z" fill="white"/>
</svg>